<?xml version="1.0" standalone="no"?>
<!DOCTYPE svg PUBLIC "-//W3C//DTD SVG 20010904//EN"
 "http://www.w3.org/TR/2001/REC-SVG-20010904/DTD/svg10.dtd">
<svg version="1.0" xmlns="http://www.w3.org/2000/svg"
 width="512.000000pt" height="512.000000pt" viewBox="0 0 512.000000 512.000000"
 preserveAspectRatio="xMidYMid meet">

<g transform="translate(0.000000,512.000000) scale(0.100000,-0.100000)"
fill="#000000" stroke="none">
<path d="M1003 4352 c-447 -224 -819 -416 -827 -427 -25 -32 -30 -79 -12 -113
11 -22 94 -84 293 -217 153 -103 284 -193 290 -199 10 -9 -65 -54 -340 -200
-193 -104 -362 -198 -374 -209 -31 -28 -40 -81 -20 -122 13 -28 129 -99 823
-511 584 -346 818 -480 845 -482 30 -3 84 22 370 176 184 98 349 186 367 196
l32 17 0 -811 0 -811 -682 344 -683 345 -5 337 -5 337 -33 29 c-45 40 -99 40
-144 0 l-33 -29 -3 -379 c-3 -346 -2 -381 14 -411 16 -31 93 -71 836 -443 537
-269 828 -409 848 -409 20 0 311 140 848 409 743 372 820 412 836 443 16 30
17 65 14 411 l-3 379 -33 29 c-45 40 -99 40 -144 0 l-33 -29 -5 -337 -5 -337
-682 -345 -683 -344 0 811 0 811 33 -17 c17 -10 182 -98 366 -196 286 -154
340 -179 370 -176 27 2 261 136 845 482 694 412 810 483 823 511 20 41 11 94
-20 122 -12 11 -181 105 -374 209 -275 146 -350 191 -340 200 6 6 137 96 290
199 319 215 331 227 291 312 -16 32 -67 59 -835 444 -627 313 -827 409 -855
409 -30 0 -95 -36 -362 -202 -179 -111 -333 -202 -342 -202 -9 0 -163 91 -342
202 -280 174 -331 202 -364 201 -31 0 -214 -88 -851 -407z m1092 26 c135 -83
244 -152 243 -154 -5 -4 -1296 -683 -1331 -700 l-34 -16 -248 168 -248 167
684 343 c376 189 685 343 686 343 1 1 113 -67 248 -151z m1864 -192 l684 -343
-248 -167 -248 -168 -34 16 c-35 17 -1326 696 -1331 700 -2 3 480 304 488 305
3 0 313 -154 689 -343z m-721 -447 c367 -194 670 -355 674 -358 4 -3 -299
-187 -673 -408 l-679 -403 -679 403 c-374 221 -677 404 -675 406 11 12 1341
710 1352 710 7 1 313 -157 680 -350z m-1573 -891 c365 -216 665 -395 665 -399
0 -3 -144 -82 -320 -176 l-320 -172 -662 393 c-365 216 -671 397 -681 402 -15
9 39 41 300 182 175 94 326 170 335 168 10 -2 317 -181 683 -398z m2806 230
c263 -141 317 -173 302 -182 -10 -5 -316 -186 -681 -402 l-662 -393 -320 172
c-176 94 -320 173 -320 176 0 7 1341 801 1352 801 5 0 153 -77 329 -172z"/>
</g>
</svg>
